<svg xmlns="http://www.w3.org/2000/svg" width="24" height="24" viewBox="0 0 24 24">
  <style>
    path { fill: black; }
    @media (prefers-color-scheme: dark) {
      path { fill: white; }
    }
  </style>
  <path d="M12.2-.033a12,12,0,1,0,12,12A12,12,0,0,0,12.2-.033Zm.555,5.716a4.217,4.217,0,0,1,.666,2.327,4.667,4.667,0,0,1-1.514,2.609,4.185,4.185,0,0,1-1.043-2.812C10.961,6.62,12.758,5.683,12.758,5.683ZM7.483,14.651a4.3,4.3,0,0,1-2.335-1.513,3.861,3.861,0,0,1,2.639-.833c1.089.141,1.871,1.839,1.871,1.839A3.89,3.89,0,0,1,7.483,14.651Zm11.775,2.432h-.6a10.741,10.741,0,0,1-3.917-.746,4.734,4.734,0,0,1-2.776,1.892c-1.347.235-2.907-1.494-2.907-1.494a4.858,4.858,0,0,1,2.4-1.412,3.516,3.516,0,0,1,1.46.091A10.792,10.792,0,0,1,7.858,6.283v-.6h1.2v.6a9.611,9.611,0,0,0,6.415,9.046,1.978,1.978,0,0,1-.728-.819,4.78,4.78,0,0,1,.1-3.427,5.333,5.333,0,0,1,2.6,2.27,4.579,4.579,0,0,1,.193,2.473,9.65,9.65,0,0,0,1.026.057h.6Z" opacity="0.9"/>
</svg>